# xmcd
#
# Track frame offsets:
#	150
#	13092
#	36206
#	54519
#
# Disc length: 1026 seconds
#
# Revision: 0
# Processed by: cddbd v1.5.2PL0 Copyright (c) Steve Scherf et al.
# Submitted via: audiograbber 1.83.01
#
DISCID=2b040004
DTITLE=Pieda - CD-Maxi
DYEAR=2001
DGENRE=Pop
TTITLE0=De Minirok (Radio Edit)
TTITLE1=De Minirok (Long Version)
TTITLE2=De Minirok (Rare Remix)
TTITLE3=De Minirok (Club Remix)
EXTD=
EXTT0=
EXTT1=
EXTT2=
EXTT3=
PLAYORDER=
